<svg width="100%" height="100%" viewBox="0 0 1420 220" fill="none" xmlns="http://www.w3.org/2000/svg" preserveAspectRatio="none"><path d="M1413.35 93.022C1413.89 92.7632 1414.32 92.3895 1414.63 91.9151C1414.95 91.4336 1415.1 90.916 1415.1 90.3626C1415.1 89.4569 1414.78 88.7094 1414.12 88.1344C1413.46 87.5522 1412.6 87.2646 1411.51 87.2646H1408.07C1407.99 87.2646 1407.92 87.2933 1407.86 87.358C1407.79 87.4155 1407.76 87.4874 1407.76 87.5593V96.2851C1407.76 96.3641 1407.78 96.436 1407.85 96.5007C1407.91 96.5582 1407.99 96.5941 1408.07 96.5941H1409.62C1409.71 96.5941 1409.78 96.5582 1409.84 96.5007C1409.9 96.436 1409.93 96.3641 1409.93 96.2851V93.4316H1411.17L1412.93 96.2132C1413.02 96.3425 1413.11 96.4288 1413.2 96.4863C1413.29 96.5366 1413.4 96.5653 1413.53 96.5653H1415.09C1415.22 96.5653 1415.32 96.515 1415.37 96.4216C1415.42 96.321 1415.42 96.2132 1415.33 96.0982L1413.35 93.022ZM1412.45 91.2395C1412.2 91.4623 1411.86 91.5845 1411.44 91.5917H1409.93V89.1048H1411.44C1411.87 89.1048 1412.21 89.2197 1412.46 89.4354C1412.7 89.6582 1412.83 89.96 1412.83 90.341C1412.83 90.7147 1412.7 91.0095 1412.45 91.2395ZM1418.64 88.8747C1418.24 87.9115 1417.67 87.0634 1416.92 86.3231C1416.18 85.6044 1415.32 85.0437 1414.36 84.6556C1413.39 84.2603 1412.37 84.0662 1411.29 84.0662C1410.22 84.0662 1409.19 84.2603 1408.22 84.6484C1407.24 85.0365 1406.38 85.5971 1405.65 86.3231C1404.9 87.0562 1404.32 87.9044 1403.92 88.8603C1403.52 89.8235 1403.32 90.8441 1403.32 91.9151C1403.32 92.9861 1403.52 93.9995 1403.92 94.9626C1404.32 95.9258 1404.9 96.7739 1405.65 97.4999C1406.38 98.2259 1407.24 98.7866 1408.22 99.1746C1409.19 99.5626 1410.22 99.7568 1411.29 99.7568C1412.37 99.7568 1413.39 99.5627 1414.36 99.1746C1415.32 98.7793 1416.18 98.2258 1416.92 97.4999C1417.67 96.7668 1418.24 95.9186 1418.64 94.9555C1419.04 93.9923 1419.23 92.9789 1419.23 91.9151C1419.23 90.8513 1419.04 89.8378 1418.64 88.8747ZM1415.83 96.508C1414.61 97.7514 1413.09 98.3696 1411.29 98.3696C1409.48 98.3696 1407.96 97.7514 1406.72 96.508C1405.5 95.2717 1404.88 93.7407 1404.88 91.9151C1404.88 90.0894 1405.5 88.5513 1406.72 87.3077C1407.96 86.057 1409.48 85.4318 1411.29 85.4318C1413.09 85.4318 1414.61 86.0571 1415.83 87.3077C1417.06 88.5512 1417.67 90.0894 1417.67 91.9151C1417.67 93.7335 1417.06 95.2645 1415.83 96.508ZM1185.44 111.864L1158.58 44.6407H1141.9L1092.57 168.264C1088.94 177.361 1095.67 187.234 1105.49 187.234C1106.87 187.234 1108.23 187.029 1109.54 186.633C1110.84 186.237 1112.09 185.652 1113.24 184.886L1174.43 143.994L1185 173.021H1209.89L1193.25 131.409L1224.44 110.569V173.021H1246.15V85.8313H1224.44L1185.44 111.864ZM1121.72 154.406L1150.01 77.0067L1167.16 124.069L1121.72 154.406ZM1252.5 56.1519V56.157C1252.5 57.4413 1251.78 58.6175 1250.64 59.2185C1245.55 61.8998 1241.37 66.0606 1238.68 71.1304C1238.07 72.2708 1236.9 72.9899 1235.6 72.9899C1234.96 72.9899 1234.34 72.81 1233.81 72.4865C1233.28 72.163 1232.83 71.7006 1232.53 71.1304C1229.84 66.0606 1225.66 61.8999 1220.57 59.2185C1219.43 58.6175 1218.7 57.4413 1218.7 56.157V56.1519C1218.7 54.8678 1219.43 53.6915 1220.57 53.0905C1225.66 50.4092 1229.84 46.2485 1232.53 41.1786C1233.13 40.0382 1234.31 39.3191 1235.6 39.3191C1236.25 39.3191 1236.86 39.4989 1237.4 39.8225C1237.93 40.141 1238.38 40.6084 1238.68 41.1786C1241.37 46.2485 1245.55 50.4092 1250.64 53.0905C1251.78 53.6915 1252.5 54.8678 1252.5 56.1519ZM1311.87 84.4498C1313.46 84.7426 1314.77 84.9994 1315.76 85.3178V106.758C1314.77 106.352 1313.52 105.977 1312.07 105.659C1310.61 105.31 1308.75 105.166 1306.43 105.166C1301.46 105.166 1297.12 106.558 1293.45 109.337C1289.76 112.09 1286.91 115.886 1284.9 120.668C1282.9 125.445 1281.88 130.921 1281.88 137.064V173.021H1260.88V85.8314H1282.05V101.719C1284.27 96.5053 1287.26 92.36 1291.04 89.3448C1295.43 85.8108 1300.38 84.0746 1305.91 84.0746C1308.26 84.0746 1310.27 84.1877 1311.87 84.4498ZM1384.94 90.1617C1378.19 86.0986 1370.33 84.0645 1361.34 84.0645C1352.35 84.0645 1344.48 86.0986 1337.73 90.1617C1330.99 94.2402 1325.77 99.7107 1322.06 106.568C1318.35 113.431 1316.5 121.053 1316.5 129.431C1316.5 137.809 1318.35 145.422 1322.06 152.289C1325.77 159.152 1330.99 164.623 1337.73 168.691C1344.48 172.764 1352.35 174.798 1361.34 174.798C1370.33 174.798 1378.19 172.764 1384.94 168.691C1391.68 164.623 1396.91 159.152 1400.61 152.289C1404.32 145.422 1406.18 137.809 1406.18 129.431C1406.18 121.053 1404.32 113.431 1400.61 106.568C1396.91 99.7107 1391.68 94.2402 1384.94 90.1617ZM1381.15 142.622C1379.67 146.67 1377.31 149.911 1374.06 152.346C1370.82 154.77 1366.57 155.988 1361.34 155.988C1356.1 155.988 1351.85 154.77 1348.61 152.346C1345.37 149.911 1343 146.67 1341.52 142.622C1340.04 138.575 1339.3 134.178 1339.3 129.431C1339.3 124.69 1340.04 120.288 1341.52 116.23C1343 112.182 1345.37 108.941 1348.61 106.517C1351.85 104.082 1356.1 102.875 1361.34 102.875C1366.57 102.875 1370.82 104.082 1374.06 106.517C1377.31 108.941 1379.67 112.182 1381.15 116.23C1382.63 120.288 1383.37 124.69 1383.37 129.431C1383.37 134.178 1382.63 138.575 1381.15 142.622Z" fill="url(#paint0_radial_3_34)"/><path d="M213.175 10.0601C187.489 -5.98651 153.676 -2.17345 123.566 16.7821C93.46 -2.16679 59.6562 -5.98399 33.9739 10.0602C-6.6039 35.4097 -11.5322 100.705 22.9666 155.901C48.4037 196.599 88.1724 220.437 123.576 219.994C158.979 220.436 198.746 196.597 224.182 155.901C258.681 100.705 253.753 35.4096 213.175 10.0601ZM41.6176 144.249C34.3593 132.636 29.0024 120.373 25.6962 107.801C22.5808 95.9556 21.4203 84.3956 22.2471 73.4424C23.786 53.0519 32.0898 37.1644 45.6284 28.7066C59.167 20.2488 77.09 19.7521 96.0962 27.3078C98.9577 28.4454 101.788 29.7682 104.592 31.2287C94.4618 40.4061 85.1538 51.4348 77.2367 64.1017C56.2706 97.646 49.8935 134.906 57.2033 164.677C51.4736 158.495 46.2536 151.666 41.6176 144.249ZM221.453 107.801C218.146 120.373 212.79 132.636 205.531 144.249C200.896 151.665 195.677 158.493 189.948 164.674C196.488 138.024 192.062 105.375 176.018 74.7596C174.89 72.606 172.283 71.8932 170.221 73.1815L120.259 104.394C118.346 105.589 117.764 108.108 118.96 110.021L126.284 121.741C127.48 123.654 130 124.235 131.913 123.04L164.295 102.811C165.38 105.919 166.353 109.049 167.182 112.201C170.298 124.047 171.458 135.607 170.632 146.56C169.093 166.951 160.789 182.838 147.25 191.296C140.489 195.52 132.633 197.758 124.096 197.999C123.91 197.997 123.722 198.003 123.536 198C123.377 198.003 123.216 197.997 123.057 197.999C114.518 197.758 106.661 195.521 99.8981 191.296C86.3597 182.838 78.0559 166.951 76.517 146.56C75.6902 135.607 76.8507 124.047 79.9661 112.201C83.2723 99.6293 88.6289 87.3665 95.8876 75.7533C103.146 64.1402 111.822 53.9509 121.676 45.4688C130.959 37.4768 140.843 31.3665 151.052 27.3078C170.059 19.752 187.982 20.2488 201.521 28.7066C215.059 37.1644 223.363 53.0518 224.902 73.4424C225.728 84.3955 224.568 95.9554 221.453 107.801Z" fill="#111111" data-color-group="0"/><path d="M479.835 83.5568C506.272 83.5568 527.492 104.056 527.492 130.131C527.492 156.027 506.272 176.167 479.835 176.167C453.579 176.167 432.359 156.027 432.359 130.131C432.359 104.056 453.579 83.5568 479.835 83.5568ZM479.835 151.841C492.118 151.841 501.33 142.053 501.33 129.951C501.33 117.849 492.118 107.883 479.835 107.883C467.733 107.883 458.522 117.849 458.522 129.951C458.522 142.052 467.733 151.841 479.835 151.841ZM652.225 110.53C652.225 147.934 625.359 173.65 586.695 173.65H538.387C536.05 173.65 534.432 171.851 534.432 169.514V51.7274C534.432 49.5674 536.05 47.77 538.387 47.77H586.695C625.359 47.77 652.225 72.9467 652.225 110.53ZM623.989 110.53C623.989 88.5917 609.244 72.5863 587.843 72.5863H561.407V148.833H587.843C609.244 148.833 623.989 132.11 623.989 110.53ZM701.286 83.557C712.977 83.557 722.327 88.5917 726.462 95.4248V90.0306C726.462 87.8727 728.441 86.0732 730.241 86.0732H748.404C750.562 86.0732 752.18 87.8727 752.18 90.0306V169.874C752.18 172.032 750.562 173.65 748.404 173.65H730.241C728.262 173.65 726.462 172.032 726.462 169.874V164.299C722.327 171.133 712.796 176.167 701.107 176.167C678.448 176.167 657.407 158.005 657.407 129.772C657.407 101.359 678.628 83.557 701.286 83.557ZM706.147 152.02C718.185 152.02 727.212 142.78 727.212 129.952C727.212 117.124 718.185 107.884 706.147 107.884C694.108 107.884 685.083 117.124 685.083 129.952C685.083 142.78 694.111 152.02 706.147 152.02ZM802.71 83.5566C814.579 83.5566 824.109 88.5923 828.245 95.066V51.5468C828.245 49.3878 830.045 47.7707 832.201 47.7707H850.366C852.524 47.7707 854.142 49.3878 854.142 51.5468V169.875C854.142 172.033 852.524 173.65 850.366 173.65H832.201C830.224 173.65 828.426 172.033 828.426 169.875V164.3C823.569 171.134 814.757 176.167 803.069 176.167C780.409 176.167 759.369 158.005 759.369 129.772C759.369 101.358 780.229 83.5566 802.71 83.5566ZM808.111 152.25C820.093 152.25 829.082 142.914 829.082 129.952C829.082 116.989 820.093 107.653 808.111 107.653C796.128 107.653 787.138 116.99 787.138 129.952C787.138 142.913 796.125 152.25 808.111 152.25ZM904.674 83.5566C916.542 83.5566 926.073 88.5923 930.21 95.066V51.5468C930.21 49.3878 932.009 47.7707 934.165 47.7707H952.33C954.487 47.7707 956.106 49.3878 956.106 51.5468V169.875C956.106 172.033 954.487 173.65 952.33 173.65H934.165C932.188 173.65 930.389 172.033 930.389 169.875V164.3C925.533 171.134 916.721 176.167 905.032 176.167C882.372 176.167 861.332 158.005 861.332 129.772C861.332 101.358 882.193 83.5566 904.674 83.5566ZM910.074 152.25C922.057 152.25 931.045 142.914 931.045 129.952C931.045 116.989 922.057 107.653 910.074 107.653C898.092 107.653 889.102 116.99 889.102 129.952C889.102 142.913 898.088 152.25 910.074 152.25ZM1048.33 86.0739H1030.21C1027.33 86.0739 1025.9 88.0526 1025.36 90.2105L1008.63 152.76L990.716 90.2105C989.684 86.8775 988.055 86.0739 985.718 86.0739H966.615C962.12 86.0739 961.292 89.132 962.191 92.189L986.432 169.875C987.151 172.033 988.59 173.65 991.288 173.65H1002.26L999.934 181.362C997.638 188.025 993.361 189.818 987.775 189.818C982.99 189.818 979.848 187.93 976.462 185.74C975.16 184.897 974.15 184.5 972.884 184.5C971.256 184.5 970.131 185.233 968.612 187.476L963.232 195.537C962.181 197.207 961.614 198.126 961.614 199.91C961.614 202.771 964.472 204.563 967.899 206.522C973.796 209.891 981.316 211.574 989.573 211.574C1007.74 211.574 1019.43 201.685 1024.64 185.144L1051.75 92.189C1053.01 88.5922 1051.93 86.0739 1048.33 86.0739ZM402.313 156.469C392.794 168.493 376.244 176.057 357.525 176.057C322.373 176.057 294.894 149.618 294.894 111.969C294.894 72.8412 324.553 45.8723 362.025 45.8723C389.683 45.8723 411.803 57.7681 421.616 81.6898C421.923 82.4701 422.07 83.0934 422.07 83.6847C422.07 84.8225 421.325 85.6769 418.939 86.5076L401.425 93.2518C400.078 93.7065 398.935 93.6782 398.111 93.3004C397.212 92.8887 396.666 92.0586 396.019 90.9033C389.787 78.9611 378.559 70.84 361.35 70.84C339.022 70.84 323.039 88.2803 323.039 110.88C323.039 132.788 336.667 150.802 361.983 150.802C375.311 150.802 385.938 144.5 390.893 137.624H375.082C372.762 137.624 370.978 135.84 370.978 133.52V120.03C370.978 117.71 372.762 115.926 375.082 115.926H421.406C423.726 115.926 425.51 117.532 425.51 119.851V169.506C425.51 171.826 423.726 173.61 421.406 173.61H406.417C404.097 173.61 402.313 171.826 402.313 169.506L402.313 156.469Z" fill="#111111" data-color-group="0"/><path d="M1167.78 124.511L1150.55 76.8083L1159.15 43.9999L1186.13 112.14L1167.78 124.511Z" fill="url(#paint1_linear_3_34)"/><defs><radialGradient id="paint0_radial_3_34" cx="0" cy="0" r="1" gradientUnits="userSpaceOnUse" gradientTransform="translate(1245.45 55.4022) scale(232.179 231.301)"><stop offset="0.0132" stop-color="#C184FF"/><stop offset="0.3557" stop-color="#9F66F7"/><stop offset="1" stop-color="#5827E6"/></radialGradient><linearGradient id="paint1_linear_3_34" x1="1155.27" y1="61.5028" x2="1182.44" y2="131.894" gradientUnits="userSpaceOnUse"><stop offset="0.1209" stop-color="#C184FF" stop-opacity="0"/><stop offset="0.2696" stop-color="#B176FB" stop-opacity="0.1453"/><stop offset="0.5986" stop-color="#8A54F2" stop-opacity="0.5158"/><stop offset="1" stop-color="#5827E6"/></linearGradient></defs></svg>