<svg width="106.4" height="100" viewBox="0 0 106.4 100" xmlns="http://www.w3.org/2000/svg"><g fill="#111"><path d="M6.117 10.173V25.96h4.716V10.173h5.777V5.939H.326v4.234zM18.125 25.961h4.531V17.89c0-1.501.892-2.407 2.308-2.407 1.388 0 2.195.892 2.195 2.393v8.085h4.531v-8.637c0-3.866-1.925-5.834-4.927-5.834-1.586 0-3.03.608-4.107 1.642V5.94h-4.531zM40.739 26.244c3.965 0 6.372-1.642 6.98-5.04h-4.516c-.255 1.09-1.077 1.614-2.323 1.614-1.472 0-2.407-.78-2.676-2.662h9.587c.07-.723.07-1.275.07-1.87 0-4.39-2.577-6.768-6.726-6.768-4.319 0-7.561 3.1-7.561 7.519 0 4.503 2.704 7.207 7.165 7.207zm.34-11.356c1.43 0 2.251.807 2.336 2.166H38.36c.425-1.444 1.416-2.166 2.719-2.166zM68.422 5.939h-4.276L56.527 25.96h4.999l1.288-3.667h6.868l1.275 3.667h5.126zM64.018 18.37l2.18-6.386 2.252 6.386zM77.484 5.939V25.96H82.2V5.94z"/></g><g fill="#111"><path d="M2.69 57.861h2.351V45.67h3.512v-1.968H5.04v-1.303c0-1.911.708-2.76 2.096-2.76.439 0 .906.07 1.416.226v-2.139a5.674 5.674 0 00-1.402-.17c-2.86 0-4.46 1.728-4.46 5.042V43.7H.14v1.968h2.55zM16.043 58.144c4.093 0 7.293-3.214 7.293-7.349 0-4.149-3.2-7.377-7.278-7.377-4.093 0-7.307 3.214-7.307 7.349 0 4.149 3.214 7.377 7.292 7.377zm.015-2.067c-2.776 0-4.9-2.251-4.9-5.31 0-3.03 2.124-5.282 4.885-5.282 2.776 0 4.9 2.252 4.9 5.31 0 3.03-2.124 5.282-4.885 5.282zM25.502 57.861h2.294v-6.825c0-3.172 1.714-5.282 4.064-5.282.553 0 .963.085 1.374.227v-2.365a5.553 5.553 0 00-1.374-.156c-1.77 0-3.27 1.119-4.05 3.087v-2.846h-2.308zM41.56 57.861h2.35V55.78c1.148 1.586 2.776 2.364 4.702 2.364 3.809 0 6.627-2.803 6.627-7.377 0-4.545-2.804-7.35-6.613-7.35-1.926 0-3.568.78-4.715 2.366v-7.944h-2.35zm6.797-1.784c-2.775 0-4.645-2.025-4.645-5.296 0-3.27 1.884-5.296 4.673-5.296 2.648 0 4.46 2.025 4.46 5.31 0 3.257-1.826 5.282-4.488 5.282zM62.645 58.144c1.855 0 3.455-.877 4.446-2.322v2.04h2.336v-14.16h-2.336v8.269c0 2.478-1.643 4.092-3.852 4.092-2.152 0-3.455-1.345-3.455-3.753v-8.609h-2.35v8.992c0 3.313 1.982 5.451 5.21 5.451zM76.819 58.144c3.384 0 5.31-1.784 5.31-4.12 0-5.31-7.986-3.384-7.986-6.825 0-1.006.85-1.898 2.45-1.898 1.812 0 2.803.864 2.874 2.422h2.138c-.028-2.733-1.7-4.305-4.9-4.305-3.03 0-4.8 1.756-4.8 3.922 0 5.41 7.944 3.3 7.944 6.882 0 1.232-.991 2.067-2.974 2.053-2.18 0-3.171-.934-3.242-2.591h-2.167c.114 2.818 2.054 4.46 5.353 4.46zM89.775 64.007c3.852 0 6.245-2.35 6.245-6.641V43.7h-2.336v8.227c0 2.478-1.643 4.092-3.852 4.092-2.18 0-3.455-1.33-3.455-3.752v-8.567h-2.35v8.95c0 3.299 1.968 5.437 5.21 5.437 1.855 0 3.455-.878 4.447-2.322v1.968c0 2.973-1.374 4.361-3.923 4.361-2.124 0-3.228-.892-3.54-2.605h-2.265c.424 2.803 2.393 4.517 5.82 4.517z"/></g><g fill="#111"><path d="M5.82 90.044c3.384 0 5.31-1.784 5.31-4.12 0-5.31-7.986-3.384-7.986-6.825 0-1.006.85-1.898 2.45-1.898 1.812 0 2.803.864 2.874 2.422h2.138c-.028-2.733-1.7-4.305-4.9-4.305-3.03 0-4.8 1.756-4.8 3.922 0 5.41 7.944 3.3 7.944 6.882 0 1.232-.991 2.067-2.974 2.053-2.18 0-3.171-.934-3.242-2.591H.467c.114 2.818 2.054 4.46 5.353 4.46zM18.734 89.988c.524 0 1.09-.057 1.543-.198v-2.153a4.819 4.819 0 01-1.416.198c-1.529 0-2.322-.863-2.322-3.086v-7.137h3.682v-2.01h-3.682v-3.683l-2.308.298V75.6h-2.35v2.01h2.336l-.014 7.138c0 3.54 1.543 5.239 4.53 5.239zM26.097 90.044c2.337 0 3.923-.82 5.112-2.676l.127 2.393h1.969v-8.765c0-3.54-2.181-5.678-5.594-5.678-2.973 0-5.055 1.557-5.607 4.205l2.209.029c.41-1.36 1.53-2.18 3.285-2.18 2.18 0 3.484 1.358 3.484 3.752v1.02c-1.275-.454-2.62-.737-4.093-.737-3.568 0-5.664 1.741-5.65 4.446-.014 2.549 1.714 4.191 4.758 4.191zm-2.407-4.318c-.014-1.416 1.19-2.436 3.398-2.436 1.459 0 2.634.24 3.965.807-.184 2.082-1.756 3.95-4.545 3.95-1.926 0-2.832-.934-2.818-2.321zM36.208 89.761H38.5v-6.825c0-3.172 1.714-5.282 4.064-5.282.553 0 .963.085 1.374.227v-2.365a5.553 5.553 0 00-1.374-.156c-1.77 0-3.27 1.119-4.05 3.087v-2.846h-2.307zM52.024 89.988c.524 0 1.09-.057 1.544-.198v-2.153a4.819 4.819 0 01-1.416.198c-1.53 0-2.322-.863-2.322-3.086v-7.137h3.681v-2.01H49.83v-3.683l-2.309.298V75.6h-2.35v2.01h2.336l-.014 7.138c0 3.54 1.544 5.239 4.531 5.239zM60.634 90.044c1.855 0 3.455-.877 4.446-2.322v2.04h2.337v-14.16H65.08v8.269c0 2.478-1.642 4.092-3.851 4.092-2.153 0-3.456-1.345-3.456-3.753v-8.609h-2.35v8.992c0 3.313 1.982 5.451 5.21 5.451zM70.546 95.624h2.35V87.68c1.147 1.586 2.776 2.364 4.702 2.364 3.809 0 6.627-2.803 6.627-7.377 0-4.545-2.804-7.35-6.613-7.35-1.926 0-3.569.78-4.716 2.366V75.6h-2.35zm6.797-7.647c-2.776 0-4.645-2.025-4.645-5.296 0-3.27 1.884-5.296 4.673-5.296 2.648 0 4.46 2.025 4.46 5.31 0 3.257-1.826 5.282-4.488 5.282zM90.823 90.044c3.385 0 5.31-1.784 5.31-4.12 0-5.31-7.986-3.384-7.986-6.825 0-1.006.85-1.898 2.45-1.898 1.812 0 2.803.864 2.874 2.422h2.138c-.028-2.733-1.699-4.305-4.899-4.305-3.03 0-4.8 1.756-4.8 3.922 0 5.41 7.944 3.3 7.944 6.882 0 1.232-.992 2.067-2.974 2.053-2.18 0-3.172-.934-3.243-2.591h-2.166c.113 2.818 2.053 4.46 5.352 4.46zM100.027 90.002c.85 0 1.544-.708 1.544-1.544 0-.863-.708-1.529-1.544-1.529-.85 0-1.529.68-1.529 1.53 0 .835.666 1.543 1.53 1.543z"/></g></svg>