<svg width="100%" height="100%" viewBox="0 0 210 193" fill="none" xmlns="http://www.w3.org/2000/svg" preserveAspectRatio="none"><rect width="210" height="192.5" rx="9.13467" fill="#593232" data-color-group="0"/><path d="M40.765 106.119C42.2722 106.726 43.3156 107.664 43.8947 108.937C44.4735 110.207 44.5227 111.685 44.0421 113.371C43.7069 114.549 43.1373 115.506 42.3327 116.24C41.5281 116.975 40.5516 117.438 39.4014 117.626C38.2522 117.817 37.0055 117.722 35.6627 117.35L34.3055 116.95C32.9353 116.544 31.7992 115.941 30.8954 115.139C29.9916 114.338 29.3891 113.39 29.0868 112.3C28.7847 111.208 28.8054 110.057 29.151 108.846C29.6156 107.214 30.4241 106.03 31.5752 105.29C32.7264 104.552 34.1203 104.335 35.7569 104.643L35.0277 107.201C33.9483 107.015 33.1068 107.103 32.5034 107.462C31.899 107.824 31.4597 108.485 31.1859 109.446C30.8675 110.563 31.0244 111.539 31.6562 112.375C32.2881 113.211 33.3778 113.865 34.9246 114.336L36.2127 114.716C37.7842 115.18 39.0637 115.247 40.0526 114.918C41.0415 114.59 41.6922 113.874 42.0066 112.771C42.2937 111.762 42.2871 110.939 41.9859 110.299C41.6856 109.659 41.035 109.119 40.0358 108.679L40.765 106.119Z" fill="white" data-color-group="1"/><path d="M47.7949 95.5241L44.9127 100.716L47.3756 103.564L46.0318 105.986L35.6738 93.3523L36.8335 91.263L52.8179 93.7637L51.4692 96.1933L47.7949 95.5241ZM43.431 99.0012L45.5869 95.1184L39.0463 93.9189L43.431 99.0012Z" fill="white" data-color-group="1"/><path d="M55.4292 81.0217L51.3789 85.6463L56.164 89.9864L54.415 91.9816L43.1241 81.7407L49.5166 74.4404L51.0994 75.8763L46.4549 81.1793L49.8121 84.224L53.8624 79.5994L55.4292 81.0217Z" fill="white" data-color-group="1"/><path d="M65.9212 71.9167L60.9576 75.7168L63.7559 79.5016L69.5581 75.0577L70.8197 76.7645L62.9182 82.8173L53.823 70.5177L61.6671 64.511L62.942 66.2332L57.1974 70.6331L59.7084 74.0275L64.672 70.2274L65.9212 71.9167ZM55.9089 63.667L58.2076 61.9064L57.8014 66.2273L56.1789 67.4632L55.9089 63.667Z" fill="white" data-color-group="1"/><path d="M88.1912 63.882C88.5699 65.4869 88.4131 66.894 87.7228 68.1068C87.0325 69.3197 85.8709 70.2097 84.2389 70.7765C83.099 71.1726 82.0018 71.2476 80.9487 70.9996C79.8956 70.7516 78.9636 70.2018 78.1505 69.3523C77.3384 68.5028 76.697 67.4128 76.2278 66.0789L75.7708 64.7181C75.3089 63.3439 75.1409 62.0501 75.2683 60.8373C75.3948 59.6245 75.8095 58.5787 76.5139 57.7003C77.2182 56.8219 78.1561 56.1781 79.3291 55.7704C80.909 55.2207 82.3265 55.213 83.5815 55.7494C84.8375 56.2838 85.8111 57.3216 86.5043 58.8614L84.0272 59.7225C83.5578 58.7173 83.0044 58.0656 82.3669 57.7696C81.7295 57.4736 80.9456 57.487 80.0145 57.8119C78.9332 58.1867 78.2381 58.8787 77.9284 59.8839C77.6186 60.891 77.7188 62.1731 78.2278 63.734L78.6622 65.0255C79.191 66.5997 79.872 67.7049 80.7031 68.3412C81.5351 68.9756 82.4851 69.1081 83.5531 68.7353C84.5296 68.3969 85.1888 67.9165 85.5297 67.2994C85.8717 66.6824 85.933 65.829 85.7148 64.7431L88.1912 63.882Z" fill="white" data-color-group="1"/><path d="M104.016 59.6287C104.155 61.1318 104.021 62.4734 103.615 63.6555C103.209 64.8357 102.559 65.7755 101.667 66.4732C100.774 67.171 99.7118 67.5784 98.4775 67.6957C97.2565 67.8111 96.1411 67.6111 95.1306 67.096C94.1193 66.5789 93.3023 65.7851 92.678 64.7126C92.0546 63.6382 91.6713 62.3696 91.5295 60.9031L91.4502 60.04C91.3133 58.5446 91.4522 57.201 91.8676 56.0075C92.2831 54.8157 92.9366 53.8702 93.8292 53.1724C94.7217 52.4747 95.7812 52.0673 97.0088 51.9519C98.2356 51.8346 99.3517 52.0306 100.355 52.54C101.358 53.0494 102.17 53.8432 102.79 54.9196C103.412 55.998 103.794 57.2839 103.938 58.7774L104.016 59.6287ZM101.327 59.0789C101.17 57.3798 100.735 56.1092 100.021 55.2635C99.3066 54.4177 98.3707 54.0507 97.212 54.1621C96.0816 54.2697 95.2383 54.8041 94.684 55.767C94.1287 56.7281 93.9201 58.035 94.058 59.6861L94.1392 60.5703C94.2941 62.2541 94.736 63.5246 95.465 64.3818C96.1941 65.2409 97.1308 65.6139 98.2764 65.5062C99.4341 65.3948 100.284 64.8624 100.826 63.9031C101.367 62.946 101.559 61.6042 101.4 59.8782L101.327 59.0789Z" fill="white" data-color-group="1"/><path d="M113.377 59.6785L117.728 52.8839L120.613 53.2549L114.386 62.2581L113.689 67.8802L111.071 67.5438L111.769 61.9217L107.926 51.625L110.823 51.998L113.377 59.6785Z" fill="white" data-color-group="1"/><path d="M134.446 66.4405C133.936 67.857 133.248 69.0104 132.383 69.9003C131.517 70.7901 130.534 71.3534 129.434 71.5938C128.334 71.8321 127.201 71.7361 126.038 71.3017C124.887 70.873 123.963 70.2042 123.269 69.2968C122.574 68.3877 122.172 67.3132 122.061 66.0714C121.952 64.8297 122.142 63.5151 122.633 62.131L122.926 61.316C123.433 59.9071 124.127 58.7537 125.006 57.8582C125.884 56.9624 126.874 56.3936 127.974 56.1552C129.074 55.9149 130.204 56.0112 131.361 56.4436C132.518 56.8742 133.443 57.5391 134.133 58.4388C134.823 59.3385 135.222 60.409 135.328 61.6525C135.434 62.8961 135.235 64.2242 134.735 65.6371L134.446 66.4405ZM132.249 64.7665C132.825 63.1653 132.97 61.8275 132.681 60.7513C132.394 59.6768 131.703 58.9348 130.61 58.5274C129.544 58.1313 128.557 58.2447 127.65 58.8714C126.742 59.4981 126.002 60.5859 125.43 62.1371L125.129 62.9713C124.558 64.5589 124.42 65.9006 124.717 66.9924C125.013 68.0861 125.701 68.8337 126.78 69.2374C127.873 69.6448 128.865 69.5334 129.759 68.9049C130.652 68.2782 131.391 67.15 131.978 65.5219L132.249 64.7665Z" fill="white" data-color-group="1"/><path d="M143.594 76.5046L138.71 73.2119L135.743 75.5108L133.465 73.975L146.583 64.3548L148.548 65.681L144.966 81.7287L142.68 80.1872L143.594 76.5046ZM140.495 71.828L144.15 74.2923L145.789 67.7378L140.495 71.828Z" fill="white" data-color-group="1"/><path d="M158.005 88.3393C156.729 89.3561 155.405 89.7962 154.035 89.6618C152.665 89.5273 151.386 88.8237 150.2 87.5495C149.371 86.6596 148.848 85.6755 148.632 84.5991C148.415 83.5207 148.518 82.4291 148.939 81.3237C149.359 80.2185 150.069 79.1708 151.064 78.181L152.09 77.1912C153.125 76.1937 154.212 75.4997 155.349 75.1133C156.486 74.725 157.593 74.6732 158.67 74.9596C159.747 75.246 160.713 75.8476 161.566 76.7625C162.714 77.9966 163.31 79.3055 163.354 80.6893C163.398 82.0732 162.877 83.4073 161.79 84.6872L159.989 82.7536C160.693 81.9022 161.044 81.1178 161.043 80.4047C161.042 79.6916 160.704 78.9728 160.027 78.2462C159.241 77.4024 158.335 77.0467 157.306 77.1774C156.279 77.3101 155.174 77.9365 153.992 79.0573L153.019 79.9953C151.831 81.1409 151.126 82.2307 150.905 83.2648C150.684 84.2989 150.962 85.233 151.738 86.0654C152.448 86.8285 153.15 87.2399 153.844 87.2975C154.538 87.3572 155.325 87.0592 156.204 86.4057L158.005 88.3393Z" fill="white" data-color-group="1"/><path d="M163.447 99.8412L160.492 94.6938L156.832 95.4242L155.454 93.0216L171.396 90.2806L172.585 92.3526L162.411 105.144L161.029 102.736L163.447 99.8412ZM162.693 94.2535L164.904 98.1054L169.217 92.9598L162.693 94.2535Z" fill="white" data-color-group="1"/><path d="M166.621 119.014L165.875 116.45L174.253 106.772L163.963 109.871L163.218 107.307L177.721 102.94L178.467 105.504L170.055 115.214L180.386 112.104L181.125 114.649L166.621 119.014Z" fill="white" data-color-group="1"/><path d="M35.0363 131.416V132.284H31.4771V127.606H34.9505V128.475H32.5348V129.491H34.6681V130.333H32.5348V131.415L35.0363 131.416Z" fill="white" data-color-group="1"/><path d="M36.5625 132.213C36.2235 132.113 35.9515 131.985 35.7455 131.823L36.1062 131.008C36.3037 131.154 36.5377 131.273 36.8089 131.362C37.0799 131.452 37.352 131.496 37.6229 131.496C37.925 131.496 38.149 131.45 38.2935 131.358C38.438 131.268 38.5097 131.147 38.5097 130.995C38.5097 130.883 38.4672 130.791 38.3813 130.718C38.2964 130.643 38.1867 130.585 38.0537 130.541C37.9196 130.495 37.7392 130.447 37.5115 130.393C37.1611 130.309 36.875 130.224 36.6513 130.14C36.4285 130.055 36.2366 129.919 36.077 129.732C35.9175 129.546 35.8372 129.296 35.8372 128.984C35.8372 128.711 35.9099 128.465 36.0534 128.244C36.1979 128.025 36.4161 127.85 36.707 127.72C36.9988 127.591 37.3539 127.527 37.7742 127.527C38.068 127.527 38.354 127.562 38.6345 127.633C38.9149 127.704 39.1596 127.808 39.3702 127.94L39.0416 128.763C38.6176 128.517 38.1925 128.396 37.7676 128.396C37.4702 128.396 37.2501 128.444 37.1075 128.542C36.9659 128.64 36.895 128.769 36.895 128.93C36.895 129.09 36.9762 129.209 37.1406 129.288C37.305 129.365 37.5553 129.442 37.8924 129.519C38.2428 129.603 38.5298 129.688 38.7526 129.772C38.9764 129.857 39.1673 129.99 39.3278 130.172C39.4874 130.355 39.5667 130.603 39.5667 130.914C39.5667 131.181 39.494 131.425 39.3476 131.646C39.2002 131.867 38.9803 132.042 38.6875 132.171C38.3937 132.3 38.0368 132.365 37.6166 132.365C37.2539 132.365 36.9025 132.315 36.5625 132.213Z" fill="white" data-color-group="1"/><path d="M32.4291 136.507H30.9586V135.625H34.9637V136.507H33.4932V140.303H32.4289L32.4291 136.507Z" fill="white" data-color-group="1"/><path d="M35.7579 135.625H37.846C38.3455 135.625 38.7865 135.723 39.1691 135.917C39.5524 136.109 39.85 136.382 40.0624 136.734C40.275 137.088 40.3808 137.497 40.3808 137.964C40.3808 138.433 40.275 138.843 40.0624 139.194C39.8499 139.546 39.5524 139.819 39.1691 140.013C38.7865 140.207 38.3455 140.303 37.846 140.303H35.7579V135.625ZM37.7939 139.416C38.2529 139.416 38.6202 139.285 38.8933 139.023C39.1671 138.764 39.3041 138.41 39.3041 137.964C39.3041 137.518 39.1671 137.167 38.8933 136.905C38.6204 136.646 38.2529 136.515 37.7939 136.515H36.8223V139.416H37.7939Z" fill="white" data-color-group="1"/><path d="M171.197 131.402V132.284H167.722V131.583L169.496 129.878C169.684 129.695 169.811 129.54 169.877 129.407C169.943 129.276 169.975 129.146 169.975 129.017C169.975 128.83 169.913 128.686 169.788 128.586C169.663 128.486 169.481 128.434 169.24 128.434C169.038 128.434 168.857 128.475 168.695 128.552C168.533 128.63 168.397 128.748 168.287 128.903L167.513 128.396C167.692 128.123 167.94 127.912 168.255 127.758C168.57 127.604 168.931 127.527 169.339 127.527C169.681 127.527 169.979 127.583 170.235 127.696C170.491 127.81 170.69 127.971 170.833 128.179C170.974 128.384 171.046 128.629 171.046 128.909C171.046 129.163 170.993 129.401 170.889 129.624C170.784 129.847 170.58 130.101 170.278 130.387L169.221 131.402H171.197Z" fill="white" data-color-group="1"/><path d="M172.812 132.077C172.514 131.887 172.281 131.608 172.113 131.245C171.944 130.883 171.86 130.449 171.86 129.945C171.86 129.442 171.944 129.009 172.113 128.646C172.281 128.282 172.514 128.006 172.812 127.813C173.11 127.623 173.449 127.527 173.83 127.527C174.211 127.527 174.551 127.623 174.848 127.813C175.145 128.006 175.379 128.282 175.547 128.646C175.716 129.009 175.8 129.442 175.8 129.945C175.8 130.449 175.716 130.883 175.547 131.245C175.379 131.608 175.145 131.887 174.848 132.077C174.551 132.269 174.211 132.365 173.83 132.365C173.449 132.365 173.11 132.269 172.812 132.077ZM174.49 131.081C174.649 130.837 174.73 130.459 174.73 129.945C174.73 129.434 174.649 129.056 174.49 128.81C174.33 128.565 174.11 128.442 173.83 128.442C173.554 128.442 173.336 128.565 173.176 128.81C173.017 129.056 172.937 129.434 172.937 129.945C172.937 130.459 173.017 130.837 173.176 131.081C173.336 131.327 173.554 131.448 173.83 131.448C174.11 131.448 174.33 131.327 174.49 131.081Z" fill="white" data-color-group="1"/><path d="M171.197 139.421V140.303H167.722V139.602L169.496 137.897C169.684 137.714 169.811 137.559 169.877 137.426C169.943 137.295 169.975 137.165 169.975 137.036C169.975 136.849 169.913 136.705 169.788 136.605C169.663 136.505 169.481 136.453 169.24 136.453C169.038 136.453 168.857 136.494 168.695 136.571C168.533 136.649 168.397 136.767 168.287 136.922L167.513 136.415C167.692 136.142 167.94 135.931 168.255 135.777C168.57 135.623 168.931 135.546 169.339 135.546C169.681 135.546 169.979 135.602 170.235 135.715C170.491 135.829 170.69 135.99 170.833 136.198C170.974 136.403 171.046 136.648 171.046 136.928C171.046 137.182 170.993 137.42 170.889 137.643C170.784 137.866 170.58 138.12 170.278 138.406L169.221 139.421H171.197Z" fill="white" data-color-group="1"/><path d="M172.812 140.096C172.514 139.906 172.281 139.627 172.113 139.264C171.944 138.902 171.86 138.468 171.86 137.964C171.86 137.46 171.944 137.028 172.113 136.665C172.281 136.301 172.514 136.025 172.812 135.832C173.11 135.642 173.449 135.546 173.83 135.546C174.211 135.546 174.551 135.642 174.848 135.832C175.145 136.025 175.379 136.301 175.547 136.665C175.716 137.028 175.8 137.46 175.8 137.964C175.8 138.468 175.716 138.902 175.547 139.264C175.379 139.627 175.145 139.906 174.848 140.096C174.551 140.288 174.211 140.384 173.83 140.384C173.449 140.384 173.11 140.288 172.812 140.096ZM174.49 139.1C174.649 138.856 174.73 138.478 174.73 137.965C174.73 137.453 174.649 137.075 174.49 136.829C174.33 136.585 174.11 136.462 173.83 136.462C173.554 136.462 173.336 136.585 173.176 136.829C173.017 137.075 172.937 137.453 172.937 137.965C172.937 138.478 173.017 138.856 173.176 139.1C173.336 139.346 173.554 139.468 173.83 139.468C174.11 139.468 174.33 139.346 174.49 139.1Z" fill="white" data-color-group="1"/><path d="M76.924 82.4773L74.6474 84.2917L83.3226 95.5651L85.5992 93.7508L76.924 82.4773Z" fill="white" data-color-group="1"/><path d="M86.5634 82.477L84.2868 84.2914L92.962 95.5649L95.2386 93.7505L86.5634 82.477Z" fill="white" data-color-group="1"/><path d="M96.2023 82.4773L93.9257 84.2917L102.601 95.5651L104.878 93.7508L96.2023 82.4773Z" fill="white" data-color-group="1"/><path d="M105.841 82.4773L103.565 84.2917L112.24 95.5651L114.517 93.7508L105.841 82.4773Z" fill="white" data-color-group="1"/><path d="M115.481 82.477L113.204 84.2914L121.879 95.5649L124.156 93.7505L115.481 82.477Z" fill="white" data-color-group="1"/><path d="M139.4 101.337C138.012 101.278 136.7 101.593 135.554 102.19C135.195 102.377 134.768 102.108 134.768 101.697C134.768 99.4349 132.967 97.6015 130.744 97.6015H73.9811C71.7587 97.6015 69.9571 99.4349 69.9571 101.697V107.503C69.9571 125.909 84.6025 141.054 102.688 140.873C117.708 140.723 130.28 130.173 133.79 115.961C133.883 115.586 134.312 115.408 134.623 115.631C135.881 116.536 137.413 117.071 139.071 117.071C143.483 117.071 147.032 113.313 146.794 108.771C146.585 104.765 143.339 101.503 139.4 101.337ZM79.0962 109.168H82.0381C82.0381 111.759 85.3699 113.947 89.3137 113.947C93.2574 113.947 96.5891 111.759 96.5891 109.168H99.531C99.531 113.527 95.043 116.941 89.3137 116.941C83.5844 116.941 79.0962 113.527 79.0962 109.168ZM101.568 133.684C94.2825 133.684 88.3559 127.653 88.3559 120.239H91.2978C91.2978 126.011 95.8957 130.69 101.568 130.69V133.684ZM101.081 124.478V121.485H108.445L103.625 109.746L106.34 108.591L112.862 124.478H101.081ZM125.333 114.263L111.853 111.445L111.635 108.576L123.312 104.138L124.341 106.943L117.456 109.56L125.926 111.331L125.333 114.263ZM139.665 112.716C137.267 113.117 135.224 111.037 135.617 108.597C135.855 107.119 137.026 105.927 138.478 105.685C140.876 105.285 142.919 107.364 142.526 109.804C142.288 111.282 141.117 112.474 139.665 112.716Z" fill="white" data-color-group="1"/></svg>