<svg width="100%" height="100%" viewBox="0 0 49 46" fill="none" xmlns="http://www.w3.org/2000/svg" preserveAspectRatio="none"><path d="M37.9712 19.4274C44.447 25.1996 48.3252 23.2695 48.3793 25.7949C48.4154 28.3203 44.465 26.5164 38.2057 32.5232C31.9464 38.5299 34.562 42.8772 31.8382 42.9313C29.1144 42.9854 31.5857 38.5299 25.1099 32.7577C18.6342 26.9854 14.7559 28.9155 14.7018 26.3902C14.6657 23.8648 18.6161 25.6686 24.8754 19.6619C31.1347 13.6551 28.5191 9.3079 31.2429 9.25379C33.9667 9.19967 31.4955 13.6371 37.9712 19.4274Z" fill="#744BC3" data-color-group="0"/><path d="M15.5495 5.93502C19.7164 9.65091 21.6104 9.01957 21.6464 10.643C21.6825 12.2665 19.7524 11.7073 15.7119 15.5494C11.6893 19.4096 12.7536 21.6103 11.0039 21.6464C9.25414 21.6825 10.2462 19.4277 6.09744 15.7118C1.93059 11.9959 0.0365729 12.6272 0.000496355 11.0038C-0.0355802 9.38034 1.89452 9.93953 5.93509 6.09737C9.95763 2.23717 8.87534 0.0365031 10.6251 0.000426507C12.3748 -0.0356501 11.3827 2.21914 15.5315 5.93502H15.5495Z" fill="#744BC3" data-color-group="0"/><path d="M14.4495 35.211C17.2274 37.6823 18.4901 37.2674 18.5081 38.3497C18.5261 39.432 17.2454 39.0532 14.5577 41.6327C11.87 44.2122 12.5915 45.6733 11.419 45.6913C10.2466 45.7093 10.914 44.2122 8.13607 41.7409C5.35818 39.2697 4.0955 39.6845 4.07746 38.6022C4.05942 37.5199 5.34014 37.8988 8.02784 35.3193C10.7155 32.7398 9.99402 31.2787 11.1665 31.2607C12.339 31.2426 11.6716 32.7398 14.4495 35.211Z" fill="#744BC3" data-color-group="0"/></svg>