<svg width="100%" height="100%" viewBox="0 0 684 100" fill="none" xmlns="http://www.w3.org/2000/svg" preserveAspectRatio="none"><path d="M0 10C0 4.47716 4.47715 0 10 0H512.222V100H10C4.47716 100 0 95.5228 0 90V10Z" fill="white" data-color-group="0"/><path d="M683.333 10C683.333 4.47716 678.856 0 673.333 0H512.222V100H673.333C678.856 100 683.333 95.5228 683.333 90V10Z" fill="#111111" data-color-group="1"/><path d="M405.032 64V44.4688H408.958V46.9492C410.266 45.1719 412.317 44.0586 414.622 44.0586C417.356 44.0586 419.446 45.3086 420.599 47.3984C422.083 45.2695 424.309 44.0586 427.102 44.0586C431.341 44.0586 434.075 47.0664 434.075 51.5977V64H429.974V52.1836C429.974 49.332 428.411 47.6719 425.891 47.6719C423.333 47.6719 421.614 49.4883 421.614 52.3984V64H417.513V52.1836C417.513 49.332 415.95 47.6719 413.431 47.6719C410.872 47.6719 409.114 49.5078 409.114 52.418V64H405.032Z" fill="#777777" data-color-group="2"/><path d="M392.005 64.3906C386.36 64.3906 381.888 59.957 381.888 54.2344C381.888 48.4922 386.36 44.0781 392.005 44.0781C397.63 44.0781 402.102 48.5117 402.102 54.2344C402.102 59.9766 397.63 64.3906 392.005 64.3906ZM392.005 60.7969C395.403 60.7969 397.962 58.082 397.962 54.2344C397.962 50.3867 395.403 47.6719 392.005 47.6719C388.587 47.6719 386.028 50.3867 386.028 54.2344C386.028 58.082 388.587 60.7969 392.005 60.7969Z" fill="#777777" data-color-group="2"/><path d="M370.989 64.3906C365.481 64.3906 361.634 60.4258 361.634 54.3516C361.634 48.4336 365.794 44.0781 371.243 44.0781C376.243 44.0781 379.251 46.3242 380.227 50.8555H376.009C375.345 48.668 373.899 47.6133 371.302 47.6133C368.099 47.6133 365.755 50.2891 365.755 54.2539C365.755 58.5312 367.923 60.8555 371.36 60.8555C373.958 60.8555 375.559 59.7422 376.224 57.5938H380.384C379.231 62.0664 375.813 64.3906 370.989 64.3906Z" fill="#777777" data-color-group="2"/><path d="M356.204 64.3711C354.759 64.3711 353.665 63.1992 353.665 61.793C353.665 60.3867 354.798 59.2539 356.204 59.2539C357.61 59.2539 358.782 60.3477 358.782 61.793C358.782 63.1992 357.63 64.3711 356.204 64.3711Z" fill="#777777" data-color-group="2"/><path d="M339.016 64.3906C334.817 64.3906 332.395 62.1445 332.415 58.4727C332.395 54.7031 335.208 52.3203 340.188 52.3203C342.024 52.3203 343.821 52.6523 345.52 53.1992V52.1641C345.52 49.3516 343.938 47.6328 341.224 47.6328C339.016 47.6328 337.806 48.668 337.356 50.2695L333.567 50.2109C334.075 46.4414 336.927 44.0781 341.399 44.0781C346.243 44.0781 349.407 47.1445 349.407 52.0078V64H346.028L345.794 61.0703C344.095 63.375 342.005 64.3906 339.016 64.3906ZM336.458 58.2773C336.438 59.8984 337.513 60.9531 339.798 60.9531C343.04 60.9531 345.188 58.8828 345.481 56.5C343.802 55.8164 342.298 55.543 340.462 55.543C337.806 55.543 336.438 56.6562 336.458 58.2773Z" fill="#777777" data-color-group="2"/><path d="M320.696 64.3906C314.798 64.3906 311.087 60.5625 311.087 54.3906C311.087 48.2969 315.52 44.0781 321.224 44.0781C326.673 44.0781 330.266 47.3203 330.266 53.1602C330.266 53.9219 330.247 54.5859 330.169 55.3477H315.266C315.618 58.9219 317.708 60.8555 320.872 60.8555C323.431 60.8555 325.286 59.7812 325.852 57.4961H330.013C329.056 62.2422 325.618 64.3906 320.696 64.3906ZM321.165 47.5938C318.294 47.5938 316.165 49.332 315.462 52.1445H326.184C325.989 49.2344 324.114 47.5938 321.165 47.5938Z" fill="#777777" data-color-group="2"/><path d="M307.981 64H303.899V61.8906C302.298 63.6094 300.266 64.3906 298.02 64.3906C292.727 64.3906 288.763 60.543 288.763 54.2344C288.763 47.9258 292.727 44.0781 298.04 44.0781C300.286 44.0781 302.298 44.8594 303.899 46.5781V36.3828H307.981V64ZM298.509 60.7969C301.907 60.7969 304.251 58.2188 304.251 54.2344C304.251 50.25 301.907 47.6719 298.509 47.6719C295.188 47.6719 292.884 50.1523 292.884 54.2344C292.884 58.3164 295.188 60.7969 298.509 60.7969Z" fill="#777777" data-color-group="2"/><path d="M283.587 40.875C282.259 40.875 281.165 39.8008 281.165 38.4727C281.165 37.1641 282.259 36.0898 283.587 36.0898C284.876 36.0898 285.97 37.1641 285.97 38.4727C285.97 39.8008 284.876 40.875 283.587 40.875ZM281.516 64V44.4688H285.599V64H281.516Z" fill="#777777" data-color-group="2"/><path d="M265.403 51.1289H276.536V54.2539H265.403V51.1289Z" fill="#777777" data-color-group="2"/><path d="M259.876 64.2539C255.286 64.2539 253.001 61.7344 253.02 56.6172L253.059 47.8672H249.856V44.4688H253.059L253.079 39.8984L257.063 39.3906V44.4688H261.849V47.8672H257.063V56.7148C257.063 59.4297 258.059 60.5234 260.091 60.5234C260.696 60.5234 261.243 60.4453 261.888 60.2891V64.0391C261.263 64.2148 260.54 64.2539 259.876 64.2539Z" fill="#777777" data-color-group="2"/><path d="M237.102 64.3906C232.903 64.3906 230.481 62.1445 230.501 58.4727C230.481 54.7031 233.294 52.3203 238.274 52.3203C240.11 52.3203 241.907 52.6523 243.606 53.1992V52.1641C243.606 49.3516 242.024 47.6328 239.309 47.6328C237.102 47.6328 235.891 48.668 235.442 50.2695L231.653 50.2109C232.161 46.4414 235.013 44.0781 239.485 44.0781C244.329 44.0781 247.493 47.1445 247.493 52.0078V64H244.114L243.88 61.0703C242.181 63.375 240.091 64.3906 237.102 64.3906ZM234.544 58.2773C234.524 59.8984 235.599 60.9531 237.884 60.9531C241.126 60.9531 243.274 58.8828 243.567 56.5C241.888 55.8164 240.384 55.543 238.548 55.543C235.891 55.543 234.524 56.6562 234.544 58.2773Z" fill="#777777" data-color-group="2"/><path d="M218.782 64.3906C212.884 64.3906 209.173 60.5625 209.173 54.3906C209.173 48.2969 213.606 44.0781 219.309 44.0781C224.759 44.0781 228.352 47.3203 228.352 53.1602C228.352 53.9219 228.333 54.5859 228.255 55.3477H213.352C213.704 58.9219 215.794 60.8555 218.958 60.8555C221.516 60.8555 223.372 59.7812 223.938 57.4961H228.099C227.141 62.2422 223.704 64.3906 218.782 64.3906ZM219.251 47.5938C216.38 47.5938 214.251 49.332 213.548 52.1445H224.27C224.075 49.2344 222.2 47.5938 219.251 47.5938Z" fill="#777777" data-color-group="2"/><path d="M196.204 64V44.4688H200.188V48.1602C201.263 45.5625 203.235 44.0977 205.579 44.0977C206.516 44.0977 207.181 44.2148 207.63 44.3516V48.4141C207.122 48.2383 206.536 48.1016 205.638 48.1016C202.395 48.1016 200.169 51.0312 200.169 55.2305V64H196.204Z" fill="#777777" data-color-group="2"/><path d="M182.845 72.4766C177.591 72.4766 174.485 69.8984 173.88 65.6992H177.806C178.274 67.9648 179.759 69.1758 182.669 69.1758C186.106 69.1758 188.04 67.2227 188.04 63.668V61.8906C186.438 63.6094 184.407 64.3906 182.161 64.3906C176.868 64.3906 172.903 60.543 172.903 54.2344C172.903 47.9258 176.868 44.0781 182.181 44.0781C184.427 44.0781 186.438 44.8594 188.04 46.5781V44.4688H192.122V62.9453C192.122 68.8828 188.333 72.4766 182.845 72.4766ZM182.649 60.7969C186.048 60.7969 188.391 58.2188 188.391 54.2344C188.391 50.25 186.048 47.6719 182.649 47.6719C179.329 47.6719 177.024 50.1523 177.024 54.2344C177.024 58.3164 179.329 60.7969 182.649 60.7969Z" fill="#777777" data-color-group="2"/><path d="M157.708 51.1289H168.841V54.2539H157.708V51.1289Z" fill="#777777" data-color-group="2"/><path d="M143.391 64V44.4688H147.376V48.1602C148.45 45.5625 150.423 44.0977 152.766 44.0977C153.704 44.0977 154.368 44.2148 154.817 44.3516V48.4141C154.309 48.2383 153.724 48.1016 152.825 48.1016C149.583 48.1016 147.356 51.0312 147.356 55.2305V64H143.391Z" fill="#777777" data-color-group="2"/><path d="M129.349 64.4102C124.974 64.4102 122.141 61.3828 122.141 56.8516V44.4688H126.224V56.1289C126.224 59.0391 127.884 60.7969 130.599 60.7969C133.333 60.7969 135.208 58.8633 135.208 55.9141V44.4688H139.29V64H135.208V61.5C133.86 63.2969 131.751 64.4102 129.349 64.4102Z" fill="#777777" data-color-group="2"/><path d="M109.231 64.3906C103.587 64.3906 99.1141 59.957 99.1141 54.2344C99.1141 48.4922 103.587 44.0781 109.231 44.0781C114.856 44.0781 119.329 48.5117 119.329 54.2344C119.329 59.9766 114.856 64.3906 109.231 64.3906ZM109.231 60.7969C112.63 60.7969 115.188 58.082 115.188 54.2344C115.188 50.3867 112.63 47.6719 109.231 47.6719C105.813 47.6719 103.255 50.3867 103.255 54.2344C103.255 58.082 105.813 60.7969 109.231 60.7969Z" fill="#777777" data-color-group="2"/><path d="M87.3563 72.4766C82.2782 72.4766 79.3485 69.8789 78.8407 65.7969H82.7665C83.1376 67.9844 84.4852 69.1758 87.2391 69.1758C90.3641 69.1758 92.1219 67.3398 92.1219 63.9609V61.4805C90.7743 63.2383 88.6649 64.332 86.2626 64.332C81.829 64.332 79.0555 61.3242 79.0555 56.832V44.4688H83.1376V56.1094C83.1376 59.0586 84.7587 60.7578 87.5126 60.7578C90.2469 60.7578 92.1219 58.8438 92.1219 55.875V44.4688H96.204V63.2578C96.204 69 92.6298 72.4766 87.3563 72.4766Z" fill="#777777" data-color-group="2"/><circle cx="598.123" cy="48.0992" r="14.4574" transform="rotate(45 598.123 48.0992)" stroke="white" stroke-width="3"/><line x1="609.271" y1="58.6306" x2="620.69" y2="70.0496" stroke="white" stroke-width="3" stroke-linecap="round"/></svg>