<svg width="100%" height="100%" viewBox="0 0 140 140" fill="none" xmlns="http://www.w3.org/2000/svg" preserveAspectRatio="none"><path fill-rule="evenodd" clip-rule="evenodd" d="M34.3633 73.788L77.3978 30.7535L93.231 46.5906L50.1965 89.6211C48.4302 91.3874 45.5655 91.3874 43.7992 89.6211L34.3633 80.1892C32.597 78.419 32.597 75.5542 34.3633 73.788Z" fill="white" data-color-group="0"/><path fill-rule="evenodd" clip-rule="evenodd" d="M98.0297 41.7894L82.1965 25.9562L91.3005 16.8522C93.0668 15.086 95.9316 15.086 97.6978 16.8522L107.134 26.2881C108.9 28.0544 108.9 30.9191 107.134 32.6854L98.0297 41.7894Z" fill="white" data-color-group="0"/><path fill-rule="evenodd" clip-rule="evenodd" d="M42.9456 31.2669C41.8155 30.1328 40.2705 29.307 38.8678 28.5562C36.9593 27.5328 35.3115 26.6477 35.3115 25.3279C35.3115 24.0082 36.9593 23.1231 38.8678 22.0997C40.2705 21.3489 41.8155 20.5191 42.9456 19.389C44.0638 18.2708 44.8541 16.7495 45.5733 15.3586C46.5769 13.4303 47.4462 11.755 48.8845 11.755C50.3228 11.755 51.1921 13.4303 52.1958 15.3586C52.915 16.7495 53.7052 18.2708 54.8235 19.389C55.9536 20.5191 57.4986 21.3489 58.9013 22.0997C60.8098 23.1231 62.4576 24.0082 62.4576 25.3279C62.4576 26.6477 60.8098 27.5328 58.9013 28.5562C57.4986 29.307 55.9536 30.1328 54.8235 31.2669C53.7052 32.3851 52.915 33.9064 52.1958 35.2973C51.1921 37.2255 50.3228 38.9009 48.8845 38.9009C47.4462 38.9009 46.5769 37.2255 45.5733 35.2973C44.8541 33.9064 44.0638 32.3851 42.9456 31.2669Z" fill="white" data-color-group="0"/><path fill-rule="evenodd" clip-rule="evenodd" d="M105.554 63.6779C106.49 64.1798 107.518 64.733 108.272 65.4877C109.019 66.2305 109.545 67.246 110.027 68.1706C110.694 69.4588 111.271 70.577 112.232 70.577C113.192 70.577 113.773 69.4588 114.44 68.1706C114.918 67.246 115.448 66.2305 116.191 65.4877C116.946 64.733 117.977 64.1798 118.909 63.6779C120.182 62.9943 121.28 62.4056 121.28 61.5284C121.28 60.6472 120.182 60.0585 118.909 59.3749C117.977 58.8731 116.946 58.3238 116.191 57.5691C115.448 56.8223 114.918 55.8068 114.44 54.8822C113.773 53.594 113.192 52.4758 112.232 52.4758C111.271 52.4758 110.694 53.594 110.027 54.8822C109.545 55.8068 109.019 56.8223 108.272 57.5691C107.518 58.3238 106.49 58.8731 105.554 59.3749C104.281 60.0585 103.183 60.6472 103.183 61.5284C103.183 62.4056 104.281 62.9943 105.554 63.6779Z" fill="white" data-color-group="0"/><mask id="mask0_5_189" style="mask-type:luminance" maskUnits="userSpaceOnUse" x="0" y="0" width="140" height="140"><path fill-rule="evenodd" clip-rule="evenodd" d="M0 0H140V140H0V0Z" fill="white" data-color-group="0"/></mask><g mask="url(#mask0_5_189)"><path fill-rule="evenodd" clip-rule="evenodd" d="M26.2491 -0.00119019H113.753C128.25 -0.00119019 140.002 11.7502 140.002 26.2478V113.751C140.002 128.249 128.25 140 113.753 140H26.2491C11.7514 140 0 128.249 0 113.751V26.2478C0 11.7502 11.7514 -0.00119019 26.2491 -0.00119019Z" fill="#744BC3" data-color-group="1"/></g><mask id="mask1_5_189" style="mask-type:luminance" maskUnits="userSpaceOnUse" x="0" y="0" width="140" height="140"><path fill-rule="evenodd" clip-rule="evenodd" d="M0 0H140V140H0V0Z" fill="white" data-color-group="0"/></mask><g mask="url(#mask1_5_189)"><path fill-rule="evenodd" clip-rule="evenodd" d="M26.2491 -0.00119019H113.753C128.25 -0.00119019 140.002 11.7502 140.002 26.2478V113.751C140.002 128.249 128.25 140 113.753 140H26.2491C11.7514 140 0 128.249 0 113.751V26.2478C0 11.7502 11.7514 -0.00119019 26.2491 -0.00119019Z" fill="#744BC3" data-color-group="1"/></g><path fill-rule="evenodd" clip-rule="evenodd" d="M56.9849 34.8918C57.8898 35.3778 58.8855 35.9112 59.6126 36.6383C60.3357 37.3614 60.8454 38.3413 61.3077 39.2383C61.9558 40.483 62.5129 41.5617 63.4415 41.5617C64.3701 41.5617 64.9312 40.483 65.5752 39.2383C66.0415 38.3413 66.5512 37.3614 67.2704 36.6383C68.0014 35.9112 68.9971 35.3778 69.902 34.8918C71.1309 34.2319 72.1938 33.6629 72.1938 32.8134C72.1938 31.9599 71.1309 31.3909 69.902 30.731C68.9971 30.245 68.0014 29.7115 67.2704 28.9845C66.5512 28.2614 66.0415 27.2814 65.5752 26.3845C64.9312 25.1438 64.3701 24.0611 63.4415 24.0611C62.5129 24.0611 61.9558 25.1438 61.3077 26.3845C60.8454 27.2814 60.3357 28.2614 59.6126 28.9845C58.8855 29.7115 57.8898 30.245 56.9849 30.731C55.756 31.3909 54.6931 31.9599 54.6931 32.8134C54.6931 33.6629 55.756 34.2319 56.9849 34.8918Z" fill="white" data-color-group="0"/><path fill-rule="evenodd" clip-rule="evenodd" d="M56.9849 34.8918C57.8898 35.3778 58.8855 35.9112 59.6126 36.6383C60.3357 37.3614 60.8454 38.3413 61.3077 39.2383C61.9558 40.483 62.5129 41.5617 63.4415 41.5617C64.3701 41.5617 64.9312 40.483 65.5752 39.2383C66.0415 38.3413 66.5512 37.3614 67.2704 36.6383C68.0014 35.9112 68.9971 35.3778 69.902 34.8918C71.1309 34.2319 72.1938 33.6629 72.1938 32.8134C72.1938 31.9599 71.1309 31.3909 69.902 30.731C68.9971 30.245 68.0014 29.7115 67.2704 28.9845C66.5512 28.2614 66.0415 27.2814 65.5752 26.3845C64.9312 25.1438 64.3701 24.0611 63.4415 24.0611C62.5129 24.0611 61.9558 25.1438 61.3077 26.3845C60.8454 27.2814 60.3357 28.2614 59.6126 28.9845C58.8855 29.7115 57.8898 30.245 56.9849 30.731C55.756 31.3909 54.6931 31.9599 54.6931 32.8134C54.6931 33.6629 55.756 34.2319 56.9849 34.8918Z" fill="white" data-color-group="0"/><path fill-rule="evenodd" clip-rule="evenodd" d="M31.9013 97.1679L73.5094 55.5599L88.8211 70.8675L47.213 112.479C45.502 114.186 42.7321 114.186 41.0251 112.479L31.9013 103.356C30.1943 101.645 30.1943 98.8749 31.9013 97.1679Z" fill="white" data-color-group="0"/><path fill-rule="evenodd" clip-rule="evenodd" d="M31.9013 97.1679L73.5094 55.5599L88.8211 70.8675L47.213 112.479C45.502 114.186 42.7321 114.186 41.0251 112.479L31.9013 103.356C30.1943 101.645 30.1943 98.8749 31.9013 97.1679Z" fill="white" data-color-group="0"/><path fill-rule="evenodd" clip-rule="evenodd" d="M93.4596 66.2287L78.1479 50.9171L86.9516 42.1174C88.6626 40.4064 91.4325 40.4064 93.1395 42.1174L102.263 51.2371C103.97 52.9481 103.97 55.718 102.263 57.425L93.4596 66.2287Z" fill="white" data-color-group="0"/><path fill-rule="evenodd" clip-rule="evenodd" d="M93.4596 66.2287L78.1479 50.9171L86.9516 42.1174C88.6626 40.4064 91.4325 40.4064 93.1395 42.1174L102.263 51.2371C103.97 52.9481 103.97 55.718 102.263 57.425L93.4596 66.2287Z" fill="white" data-color-group="0"/><path fill-rule="evenodd" clip-rule="evenodd" d="M40.1993 56.0546C39.1048 54.9601 37.6111 54.1579 36.2558 53.4309C34.4105 52.443 32.8181 51.5896 32.8181 50.3133C32.8181 49.037 34.4105 48.1795 36.2558 47.1917C37.6111 46.4646 39.1048 45.6625 40.1993 44.5719C41.282 43.4892 42.0446 42.0193 42.74 40.6759C43.7081 38.8069 44.5498 37.1868 45.9407 37.1868C47.3316 37.1868 48.1732 38.8069 49.1413 40.6759C49.8407 42.0193 50.6033 43.4892 51.682 44.5719C52.7766 45.6625 54.2702 46.4646 55.6295 47.1917C57.4748 48.1795 59.0672 49.037 59.0672 50.3133C59.0672 51.5896 57.4748 52.443 55.6295 53.4309C54.2702 54.1579 52.7766 54.9601 51.682 56.0546C50.6033 57.1373 49.8407 58.6072 49.1413 59.9507C48.1732 61.8157 47.3316 63.4358 45.9407 63.4358C44.5498 63.4358 43.7081 61.8157 42.74 59.9507C42.0446 58.6072 41.282 57.1373 40.1993 56.0546Z" fill="white" data-color-group="0"/><path fill-rule="evenodd" clip-rule="evenodd" d="M40.1993 56.0546C39.1048 54.9601 37.6111 54.1579 36.2558 53.4309C34.4105 52.443 32.8181 51.5896 32.8181 50.3133C32.8181 49.037 34.4105 48.1795 36.2558 47.1917C37.6111 46.4646 39.1048 45.6625 40.1993 44.5719C41.282 43.4892 42.0446 42.0193 42.74 40.6759C43.7081 38.8069 44.5498 37.1868 45.9407 37.1868C47.3316 37.1868 48.1732 38.8069 49.1413 40.6759C49.8407 42.0193 50.6033 43.4892 51.682 44.5719C52.7766 45.6625 54.2702 46.4646 55.6295 47.1917C57.4748 48.1795 59.0672 49.037 59.0672 50.3133C59.0672 51.5896 57.4748 52.443 55.6295 53.4309C54.2702 54.1579 52.7766 54.9601 51.682 56.0546C50.6033 57.1373 49.8407 58.6072 49.1413 59.9507C48.1732 61.8157 47.3316 63.4358 45.9407 63.4358C44.5498 63.4358 43.7081 61.8157 42.74 59.9507C42.0446 58.6072 41.282 57.1373 40.1993 56.0546Z" fill="white" data-color-group="0"/><path fill-rule="evenodd" clip-rule="evenodd" d="M100.735 87.3926C101.64 87.8786 102.636 88.4121 103.363 89.1391C104.086 89.8622 104.595 90.8422 105.058 91.7391C105.706 92.9799 106.263 94.0625 107.191 94.0625C108.12 94.0625 108.681 92.9799 109.325 91.7391C109.791 90.8422 110.301 89.8622 111.02 89.1391C111.751 88.4121 112.747 87.8786 113.652 87.3926C114.881 86.7327 115.944 86.1637 115.944 85.3142C115.944 84.4607 114.881 83.8917 113.652 83.2318C112.747 82.7458 111.751 82.2124 111.02 81.4853C110.301 80.7622 109.791 79.7823 109.325 78.8893C108.681 77.6446 108.12 76.5619 107.191 76.5619C106.263 76.5619 105.706 77.6446 105.058 78.8893C104.595 79.7823 104.086 80.7622 103.363 81.4853C102.636 82.2124 101.64 82.7458 100.735 83.2318C99.506 83.8917 98.4431 84.4607 98.4431 85.3142C98.4431 86.1637 99.506 86.7327 100.735 87.3926Z" fill="white" data-color-group="0"/><path fill-rule="evenodd" clip-rule="evenodd" d="M100.735 87.3926C101.64 87.8786 102.636 88.4121 103.363 89.1391C104.086 89.8622 104.595 90.8422 105.058 91.7391C105.706 92.9799 106.263 94.0625 107.191 94.0625C108.12 94.0625 108.681 92.9799 109.325 91.7391C109.791 90.8422 110.301 89.8622 111.02 89.1391C111.751 88.4121 112.747 87.8786 113.652 87.3926C114.881 86.7327 115.944 86.1637 115.944 85.3142C115.944 84.4607 114.881 83.8917 113.652 83.2318C112.747 82.7458 111.751 82.2124 111.02 81.4853C110.301 80.7622 109.791 79.7823 109.325 78.8893C108.681 77.6446 108.12 76.5619 107.191 76.5619C106.263 76.5619 105.706 77.6446 105.058 78.8893C104.595 79.7823 104.086 80.7622 103.363 81.4853C102.636 82.2124 101.64 82.7458 100.735 83.2318C99.506 83.8917 98.4431 84.4607 98.4431 85.3142C98.4431 86.1637 99.506 86.7327 100.735 87.3926Z" fill="white" data-color-group="0"/></svg>